# xmcd
#
# Track frame offsets:
#	187
#	23265
#	47405
#	61980
#	80585
#	92465
#	106647
#	161290
#	191545
#	201462
#	217072
#	248660
#	265032
#	322627
#
# Disc length: 4392 seconds
#
# Revision: 0
# Processed by: cddbd v1.5.2PL0 Copyright (c) Steve Scherf et al.
# Submitted via: audiograbber 1.83.01
#
DISCID=a311260e
DTITLE=Quicksilver Messenger Service - Sons Of Mercury: 1968-1975 [CD 1)
DYEAR=1991
DGENRE=Psychedelic Rock
TTITLE0=Babe, I'm Gonna Leave You
TTITLE1=Codine
TTITLE2=I Hear You Knockin' (It's Too Late)
TTITLE3=Pride Of Man
TTITLE4=Light Your Windows
TTITLE5=Dino's Song
TTITLE6=The Fool
TTITLE7=Gold And Silver
TTITLE8=Bears
TTITLE9=Who Do You Love (single edit)
TTITLE10=Mona
TTITLE11=Maiden Of The Cancer Moon
TTITLE12=Calvary
TTITLE13=Happy Trails
EXTD=
EXTT0=
EXTT1=
EXTT2=
EXTT3=
EXTT4=
EXTT5=
EXTT6=
EXTT7=
EXTT8=
EXTT9=
EXTT10=
EXTT11=
EXTT12=
EXTT13=
PLAYORDER=
